<svg xmlns="http://www.w3.org/2000/svg" xmlns:xlink="http://www.w3.org/1999/xlink" version="1.1" id="Layer_1" x="0px" y="0px" width="100px" height="100px" viewBox="0 0 100 100" enable-background="new 0 0 100 100" xml:space="preserve">
<g>
	<path fill="#000000" d="M42.046,70.668V27.449c0-0.672-0.543-1.216-1.215-1.216c-0.671,0-1.215,0.544-1.215,1.216v43.219   c-3.95,0.588-6.992,3.996-6.992,8.105c0,4.527,3.681,8.211,8.206,8.211s8.209-3.684,8.209-8.211   C49.038,74.664,45.996,71.26,42.046,70.668z"/>
	<path fill="#000000" d="M50.346,63.922V12.79c0-2.873-1.008-5.276-2.917-6.951c-1.664-1.461-3.922-2.265-6.355-2.265   c-4.731,0-9.758,3.229-9.758,9.216v51.13c-5.031,3.23-8.134,8.855-8.134,14.857c0,9.73,7.917,17.648,17.65,17.648   c9.732,0,17.649-7.918,17.649-17.648C58.479,72.775,55.378,67.152,50.346,63.922z M40.831,93.994   c-8.392,0-15.219-6.826-15.219-15.217c0-5.381,2.888-10.416,7.535-13.141c0.02-0.01,0.034-0.025,0.052-0.037   c0.012-0.008,0.022-0.018,0.034-0.025c0.055-0.037,0.106-0.08,0.152-0.125c0.006-0.006,0.011-0.012,0.017-0.018   c0.049-0.051,0.094-0.105,0.132-0.16c0.006-0.008,0.009-0.018,0.014-0.025c0.037-0.057,0.07-0.115,0.097-0.178   c0.006-0.014,0.01-0.027,0.016-0.043c0.022-0.059,0.042-0.117,0.055-0.178c0.004-0.02,0.007-0.039,0.01-0.059   c0.009-0.061,0.017-0.119,0.018-0.18c0-0.008,0.002-0.016,0.002-0.025v-3.07h1.789c0.672,0,1.216-0.545,1.216-1.217   s-0.544-1.215-1.216-1.215h-1.789v-6.148h1.789c0.672,0,1.216-0.543,1.216-1.217c0-0.67-0.544-1.215-1.216-1.215h-1.789v-6.147   h1.789c0.672,0,1.216-0.544,1.216-1.216s-0.544-1.215-1.216-1.215h-1.789v-6.148h1.789c0.672,0,1.216-0.544,1.216-1.216   c0-0.671-0.544-1.216-1.216-1.216h-1.789v-6.147h1.789c0.672,0,1.216-0.544,1.216-1.215c0-0.672-0.544-1.217-1.216-1.217h-1.789   v-6.146h1.789c0.672,0,1.216-0.545,1.216-1.216c0-0.672-0.544-1.216-1.216-1.216h-1.789V12.79c0-4.454,3.687-6.785,7.328-6.785   c1.843,0,3.531,0.591,4.752,1.662c1.367,1.199,2.09,2.971,2.09,5.123v7.685h-1.96c-0.672,0-1.216,0.545-1.216,1.216   c0,0.672,0.544,1.216,1.216,1.216h1.96v6.146h-1.96c-0.672,0-1.216,0.545-1.216,1.217c0,0.671,0.544,1.216,1.216,1.216h1.96v6.146   h-1.96c-0.672,0-1.216,0.544-1.216,1.217c0,0.671,0.544,1.215,1.216,1.215h1.96v6.148h-1.96c-0.672,0-1.216,0.544-1.216,1.215   c0,0.672,0.544,1.216,1.216,1.216h1.96v6.148h-1.96c-0.672,0-1.216,0.543-1.216,1.215s0.544,1.217,1.216,1.217h1.96v7.361   c0,0.008,0.002,0.014,0.002,0.02c0.001,0.066,0.009,0.133,0.02,0.199c0.004,0.014,0.004,0.025,0.008,0.039   c0.014,0.068,0.034,0.135,0.061,0.199c0.003,0.008,0.006,0.016,0.009,0.023c0.029,0.068,0.064,0.133,0.106,0.195   c0.001,0.002,0.002,0.004,0.004,0.006c0.042,0.062,0.089,0.119,0.144,0.174c0.002,0.002,0.003,0.006,0.006,0.008   c0.049,0.047,0.104,0.092,0.162,0.133c0.008,0.006,0.016,0.012,0.023,0.018c0.02,0.014,0.035,0.027,0.055,0.039   c4.647,2.725,7.536,7.76,7.536,13.141C56.05,87.168,49.223,93.994,40.831,93.994z"/>
	<path fill="#000000" d="M72.794,56.779c-0.957-0.848-1.861-1.646-2.528-2.729c-0.222-0.359-0.613-0.578-1.035-0.578   s-0.813,0.219-1.034,0.576c-0.668,1.082-1.572,1.883-2.53,2.73c-1.887,1.67-4.025,3.562-4.025,7.736c0,4.186,3.405,7.59,7.59,7.59   c4.184,0,7.589-3.404,7.589-7.59C76.819,60.344,74.681,58.449,72.794,56.779z M69.23,69.674c-2.844,0-5.159-2.314-5.159-5.158   c0-3.078,1.415-4.33,3.208-5.916c0.658-0.582,1.329-1.176,1.951-1.883c0.621,0.707,1.293,1.301,1.952,1.885   c1.791,1.584,3.206,2.836,3.206,5.914C74.389,67.359,72.074,69.674,69.23,69.674z"/>
	<path fill="#000000" d="M61.984,54.289c4.185,0,7.59-3.404,7.59-7.589c0-4.174-2.14-6.066-4.026-7.736   c-0.958-0.848-1.861-1.647-2.529-2.73c-0.442-0.719-1.626-0.718-2.07,0c-0.667,1.083-1.57,1.884-2.527,2.73   c-1.887,1.67-4.025,3.563-4.025,7.736C54.396,50.885,57.8,54.289,61.984,54.289z M60.032,40.785   c0.658-0.584,1.331-1.179,1.952-1.885c0.621,0.706,1.294,1.301,1.951,1.884c1.793,1.586,3.207,2.838,3.207,5.916   c0,2.844-2.314,5.157-5.158,5.157s-5.158-2.313-5.158-5.157C56.826,43.622,58.241,42.37,60.032,40.785z"/>
</g>
</svg>